<svg xmlns="http://www.w3.org/2000/svg" viewBox="0 0 120 150" width="120" height="150" role="img" aria-label="Ilustración: unha rapaza cunha peza impresa en 3D">
  <title>Ilustración: unha rapaza cunha peza impresa en 3D</title>
  <g fill="none" stroke="#1e2a44" stroke-width="2.4" stroke-linecap="round" stroke-linejoin="round">
    <path d="M53 56h14v22H53z" fill="#f6d9bc" stroke="none"/>
    <path d="M41 138V87a19 18 0 0 1 38 0v51" fill="#7b4fbf" stroke="none"/>
    <path d="M41 138V87a19 18 0 0 1 38 0v51"/>
    <path d="M48 138v-11M72 138v-11"/>
    <circle cx="60" cy="51" r="19" fill="#f6d9bc" stroke="none"/>
    <circle cx="60" cy="51" r="19"/>
    <path d="M41 51q0-19 19-19t19 19q2-12-4-18-6-6-15-6t-15 6q-6 6-4 18z" fill="#e2a33f" stroke="none"/>
    <path d="M41 51q0-19 19-19t19 19q2-12-4-18-6-6-15-6t-15 6q-6 6-4 18z"/>
    <circle cx="38" cy="50" r="6" fill="#e2a33f" stroke="none"/>
    <circle cx="82" cy="50" r="6" fill="#e2a33f" stroke="none"/>
    <circle cx="53" cy="51" r="2.2" fill="#1e2a44" stroke="none"/>
    <circle cx="67" cy="51" r="2.2" fill="#1e2a44" stroke="none"/>
    <path d="M55 59q5 4 10 0"/>
    <path d="M42 100 32 116M78 100l10 16"/>
  </g>
  <g>
    <path d="m60 100 18 9v18l-18 9-18-9v-18z" fill="#3bb8a9" stroke="#1e2a44" stroke-width="2.4" stroke-linejoin="round"/>
    <path d="m42 109 18 9 18-9M60 118v18" stroke="#1e2a44" stroke-width="2.2" stroke-linejoin="round" fill="none"/>
  </g>
</svg>
